<svg id="Layer_1" data-name="Layer 1" xmlns="http://www.w3.org/2000/svg" viewBox="0 0 248.82 67.96"><defs><style>.cls-1,.cls-2{fill:none;stroke:#05c77e;stroke-linecap:round;stroke-linejoin:round;}.cls-1{stroke-width:4px;}.cls-2{stroke-width:3.99px;}.cls-3{fill:#05c77e;}</style></defs><title>mirage-logo-light</title><g id="logo-and-name_svg_logo-and-name_svg_Logo-5" data-name="logo-and-name svg  logo-and-name svg  Logo-5"><g id="logo-and-name_svg_logo-and-name_svg_Logo-1" data-name="logo-and-name svg  logo-and-name svg  Logo-1"><g id="logo-and-name_svg_logo-and-name_svg_Group-2" data-name="logo-and-name svg  logo-and-name svg  Group-2"><path id="logo-and-name_svg_logo-and-name_svg_Path" data-name="logo-and-name svg  logo-and-name svg  Path" class="cls-1" d="M2,46.08H76.72" transform="translate(0 -0.13)"/><path id="logo-and-name_svg_logo-and-name_svg_Path-2" data-name="logo-and-name svg  logo-and-name svg  Path" class="cls-2" d="M17.35,56.08h44" transform="translate(0 -0.13)"/><path id="logo-and-name_svg_logo-and-name_svg_Path-3" data-name="logo-and-name svg  logo-and-name svg  Path" class="cls-1" d="M32.69,66.08H46" transform="translate(0 -0.13)"/><polyline id="logo-and-name_svg_logo-and-name_svg_Path-4" data-name="logo-and-name svg  logo-and-name svg  Path" class="cls-1" points="42.07 30.58 51.66 16.13 68.38 45.96"/><path id="logo-and-name_svg_logo-and-name_svg_Combined-Shape" data-name="logo-and-name svg  logo-and-name svg  Combined-Shape" class="cls-3" d="M54.66.12a13,13,0,0,1,4.4,25.25L57.19,22A9.27,9.27,0,1,0,47.47,19l-2.15,3.22A13,13,0,0,1,54.66.12Z" transform="translate(0 -0.13)"/><polyline id="logo-and-name_svg_logo-and-name_svg_Path-5" data-name="logo-and-name svg  logo-and-name svg  Path" class="cls-1" points="10.35 45.96 29.59 11.74 51.92 45.96"/><path id="logo-and-name_svg_logo-and-name_svg_Combined-Shape-2" data-name="logo-and-name svg  logo-and-name svg  Combined-Shape" d="M208.58,26.86a9.47,9.47,0,0,1,7.83,3.44V27.47h5.16V49.36c0,7.4-4.76,11.94-12.62,11.94a17.9,17.9,0,0,1-9.85-2.73L201,54.22a15.44,15.44,0,0,0,8,2.39c4.81,0,7.46-2.66,7.46-7V47.69a9.41,9.41,0,0,1-7.83,3.44c-5.38,0-10.91-4.52-10.91-12.14S203.2,26.86,208.58,26.86Zm-27.84,0a8.93,8.93,0,0,1,7.39,3.46V27.47h5.14V51h-5.14V48.18a8.91,8.91,0,0,1-7.39,3.44c-6.59,0-11.77-5.18-11.77-12.38S174.15,26.86,180.74,26.86Zm56.95,0c6.59,0,11.11,5,11.13,12.35,0,.67,0,1.33-.1,1.92H231.33a6.64,6.64,0,0,0,7,6,11.24,11.24,0,0,0,6.81-2.48l2.55,3.67A14.2,14.2,0,0,1,238,51.62c-7,0-12-4.91-12-12.38S230.76,26.86,237.69,26.86ZM106,16.61l10,24.57,10-24.57h8.53V51H129V22.7l-10,24.94h-5.85L103,23V51H97.47V16.61Zm40.41,10.86V51h-5.15V27.47Zm18-.61a10.21,10.21,0,0,1,4,.66l-1.23,5.08a9.22,9.22,0,0,0-3.91-.85c-3.26,0-5.6,2.3-5.6,6.31V51h-5.13V27.47h5.08v2.65A7.88,7.88,0,0,1,164.42,26.86Zm16.93,4.84c-4.42,0-7.1,3.41-7.1,7.54s2.68,7.54,7.1,7.54c4.25,0,7.1-3.24,7.1-7.54S185.6,31.7,181.35,31.7Zm28.55,0c-4.35,0-7,3.31-7,7.29s2.6,7.3,7,7.3c4.15,0,7-3.17,7-7.3S214.05,31.7,209.9,31.7Zm27.69-.27c-3.66,0-5.69,2.35-6.24,5.79h12.21C243,33.56,240.86,31.43,237.59,31.43ZM143.81,15.7a3.6,3.6,0,0,1,3.64,3.64,3.56,3.56,0,0,1-3.64,3.59,3.52,3.52,0,0,1-3.59-3.59A3.56,3.56,0,0,1,143.81,15.7Z" transform="translate(0 -0.13)"/></g></g></g></svg>